{"title":"Uttama Villain (2015) TC Rip XviD MP3 700MB","uid":11878609,"size":722995992,"categoryP":"video","categoryS":"movies","magnet":"?xt=urn:btih:ebe0a8242ebb2ee105eb59d6d2a757caf737afee&amp;dn=Uttama+Villain+%282015%29+TC+Rip+XviD+MP3+700MB&amp;tr=udp%3A%2F%2Ftracker.openbittorrent.com%3A80&amp;tr=udp%3A%2F%2Fopen.demonii.com%3A1337&amp;tr=udp%3A%2F%2Ftracker.coppersurfer.tk%3A6969&amp;tr=udp%3A%2F%2Fexodus.desync.com%3A6969","seeders":13,"leechers":0,"uploader":"TeamXDN","files":1,"time":1430627389,"description":"Uttama Villain (2015) TC Rip XviD MP3 700MB\n\nFormat                                   : AVI\nFormat/Info                              : Audio Video Interleave\nFile size                                : 690 MiB\nDuration                                 : 2h 40mn\nOverall bit rate                         : 599 Kbps\n\nVideo\nID                                       : 0\nFormat                                   : MPEG-4 Visual\nFormat profile                           : Advanced Simple@L5\nFormat settings, BVOP                    : 2\nFormat settings, QPel                    : Yes\nFormat settings, GMC                     : No warppoints\nFormat settings, Matrix                  : Default (H.263)\nCodec ID                                 : XVID\nCodec ID/Hint                            : XviD\nDuration                                 : 2h 40mn\nBit rate                                 : 511 Kbps\nWidth                                    : 608 pixels\nHeight                                   : 256 pixels\nDisplay aspect ratio                     : 2.40:1\nFrame rate                               : 29.970 fps\nColor space                              : YUV\nChroma subsampling                       : 4:2:0\nBit depth                                : 8 bits\nScan type                                : Progressive\nCompression mode                         : Lossy\nBits/(Pixel*Frame)                       : 0.110\nStream size                              : 589 MiB (85%)\nWriting library                          : XviD 1.2.1 (UTC 2008-12-04)\n\nAudio\nID                                       : 1\nFormat                                   : MPEG Audio\nFormat version                           : Version 1\nFormat profile                           : Layer 3\nMode                                     : Joint stereo\nMode extension                           : MS Stereo\nCodec ID                                 : 55\nCodec ID/Hint                            : MP3\nDuration                                 : 2h 40mn\nBit rate mode                            : Constant\nBit rate                                 : 80.0 Kbps\nChannel(s)                               : 2 channels\nSampling rate                            : 32.0 KHz\nCompression mode                         : Lossy\nStream size                              : 92.1 MiB (13%)\nAlignment                                : Aligned on interleaves\nInterleave, duration                     : 133 ms (4.00 video frames)\nInterleave, preload duration             : 216 ms\nTitle                                    : Uttama Villain - 2015 - [0]\nWriting library                          : LAME3.99r\nEncoding settings                        : -m j -V 4 -q 2 -lowpass 13.5 -b 80","torrent":{"xt":"urn:btih:ebe0a8242ebb2ee105eb59d6d2a757caf737afee","amp;dn":"Uttama+Villain+%282015%29+TC+Rip+XviD+MP3+700MB","amp;tr":["udp%3A%2F%2Ftracker.openbittorrent.com%3A80","udp%3A%2F%2Fopen.demonii.com%3A1337","udp%3A%2F%2Ftracker.coppersurfer.tk%3A6969","udp%3A%2F%2Fexodus.desync.com%3A6969"],"infoHash":"ebe0a8242ebb2ee105eb59d6d2a757caf737afee","infoHashBuffer":{"type":"Buffer","data":[235,224,168,36,46,187,46,225,5,235,89,214,210,167,87,202,247,55,175,238]},"announce":[],"urlList":[]}}